<?xml version="1.0" standalone="no"?><!DOCTYPE svg PUBLIC "-//W3C//DTD SVG 1.1//EN" "http://www.w3.org/Graphics/SVG/1.1/DTD/svg11.dtd"><svg t="1769135639864" class="icon" viewBox="0 0 1024 1024" version="1.1" xmlns="http://www.w3.org/2000/svg" p-id="4384" width="32" height="32" xmlns:xlink="http://www.w3.org/1999/xlink"><path d="M512 960S127.85 743.755 127.85 421.981c0.01-190.135 171.785-357.879 383.694-357.879 211.914 0 383.719 167.744 383.704 357.879C893.755 747.684 512 960 512 960z m-0.451-831.993c-159.86 0.01-319.725 124.629-319.735 304.665 0 263.13 319.75 462.211 319.75 462.211s319.75-199.081 319.75-462.211c-0.785-180.036-159.875-304.68-319.765-304.665z" p-id="4385" fill="#2c2c2c"></path><path d="M704 480H320c-17.6 0-32-14.4-32-32s14.4-32 32-32h384c17.6 0 32 14.4 32 32s-14.4 32-32 32z" p-id="4386" fill="#2c2c2c"></path><path d="M544 256v384c0 17.6-14.4 32-32 32s-32-14.4-32-32V256c0-17.6 14.4-32 32-32s32 14.4 32 32z" p-id="4387" fill="#2c2c2c"></path></svg>