<?xml version="1.0" standalone="no"?><!DOCTYPE svg PUBLIC "-//W3C//DTD SVG 1.1//EN" "http://www.w3.org/Graphics/SVG/1.1/DTD/svg11.dtd"><svg t="1769151858076" class="icon" viewBox="0 0 1024 1024" version="1.1" xmlns="http://www.w3.org/2000/svg" p-id="6303" xmlns:xlink="http://www.w3.org/1999/xlink" width="32" height="32"><path d="M365.886201 322.076416c23.456225-52.41579 66.505693-83.309404 137.26834-83.72589 75.258031-0.428765 118.66054 26.621311 140.215462 72.39175 11.535731 24.493857 14.870686 48.082088 14.658861 72.246441-0.00921 0.980327-0.00921 0.980327-0.013303 1.871627 0.441045 14.852266-3.926426 34.521235-17.566074 53.777811-12.100596 17.08205-30.153764 31.126928-55.613622 41.073464-76.218916 29.789467-93.386924 58.71424-92.333942 118.933763 0.080841 4.625344 0.10847 6.728238 0.10847 9.275247l0 48.314379c0 10.069333 8.162914 18.231223 18.231223 18.231223s18.231223-8.162914 18.231223-18.231223l0-48.314379c0-2.828418-0.029676-5.077645-0.113587-9.912767-0.799202-45.699832 7.930623-60.407812 69.146846-84.333734 32.066323-12.528338 55.861262-31.038924 72.097038-53.958936 18.874883-26.64587 24.916483-53.854559 24.285103-74.936713-0.008186-0.468674-0.008186-0.468674 0.002047-1.470491 0.095167-10.851139-0.356111-20.729114-2.131547-33.287127-2.666736-18.860557-7.773034-37.343513-16.001439-54.81442-27.634384-58.680471-84.030835-93.827969-173.414585-93.319385-85.74078 0.505513-141.28277 40.36329-170.33955 105.295138-16.480346 36.826743-21.731954 73.877591-21.288862 101.742219 0.327458 10.846022 8.738012 18.753109 18.802228 18.443048 10.064216-0.310062 17.971303-8.720615 17.661242-18.784832C347.407338 385.335159 351.96412 353.185948 365.886201 322.076416z" fill="#2c2c2c" p-id="6304"></path><path d="M511.849574 767.07135m-36.46347 0a35.633 35.633 0 1 0 72.92694 0 35.633 35.633 0 1 0-72.92694 0Z" fill="#2c2c2c" p-id="6305"></path><path d="M985.872634 511.828085c0-261.795495-212.227566-474.02306-474.02306-474.02306S37.826514 250.03259 37.826514 511.828085s212.227566 474.02306 474.02306 474.02306S985.872634 773.623579 985.872634 511.828085zM1.363044 511.828085c0-281.934161 228.552369-510.48653 510.48653-510.48653s510.48653 228.552369 510.48653 510.48653-228.552369 510.48653-510.48653 510.48653S1.363044 793.762245 1.363044 511.828085z" fill="#2c2c2c" p-id="6306"></path></svg>