<?xml version="1.0" standalone="no"?><!DOCTYPE svg PUBLIC "-//W3C//DTD SVG 1.1//EN" "http://www.w3.org/Graphics/SVG/1.1/DTD/svg11.dtd"><svg t="1765787194460" class="icon" viewBox="0 0 1024 1024" version="1.1" xmlns="http://www.w3.org/2000/svg" p-id="5793" width="16" height="16" xmlns:xlink="http://www.w3.org/1999/xlink"><path d="M904.704 651.776l-2.048-229.888c52.224-10.752 91.648-56.832 91.648-112.128 0-62.976-51.2-114.688-114.688-114.688-46.08 0-86.016 27.648-103.936 66.56L230.4 129.024v-5.12c0-62.976-51.2-114.176-114.688-114.176S1.536 60.928 1.536 123.904s51.2 114.688 114.688 114.688h0.512l101.888 513.024c-40.448 17.408-69.12 57.856-69.12 104.96 0 62.976 51.2 114.688 114.688 114.688 58.368 0 106.496-44.032 113.664-100.352l399.872-66.56c16.384 43.52 58.368 74.24 107.008 74.24 62.976 0 114.688-51.2 114.688-114.688-1.024-55.808-41.472-102.4-94.72-112.128z m-24.576-413.184c38.912 0 70.656 31.744 70.656 70.656 0 31.232-20.48 57.856-48.64 67.072-7.168 2.56-14.336 3.584-22.528 3.584-7.168 0-14.336-1.024-20.992-3.072-27.136-8.704-47.104-32.768-49.664-62.464 0-1.536-0.512-3.584-0.512-5.12 0-13.824 4.096-26.112 10.752-36.864 12.8-20.48 35.328-33.792 60.928-33.792z m-764.416-43.52c-2.56 0-5.632 0-8.192-0.512-35.328-4.096-62.464-34.304-62.464-70.144 0-38.912 31.744-70.656 70.656-70.656 37.376 0 68.096 29.184 70.656 65.536 0 1.536 0.512 3.584 0.512 5.12 0 13.824-4.096 26.112-10.752 36.864-6.144 10.24-15.36 18.944-25.6 25.088-10.24 5.12-22.016 8.704-34.816 8.704z m43.52 34.816c27.136-11.264 48.64-31.744 60.928-58.368l545.792 132.608v5.12c0 55.808 40.448 102.912 93.696 112.64l2.048 229.888c-51.2 10.24-90.112 55.296-91.648 109.056L374.784 826.88c-13.824-48.64-58.368-84.48-111.104-84.48h-2.56L159.232 229.888zM263.68 927.744c-38.912 0-70.656-31.744-70.656-70.656 0-25.6 13.824-48.128 34.304-60.928 10.752-6.656 23.04-10.24 36.352-10.24 2.048 0 4.096 0 6.144 0.512 28.672 2.56 52.736 22.016 61.44 48.128 2.56 7.168 3.584 14.336 3.584 22.528 0 7.68-1.024 14.848-3.584 22.016-9.216 27.648-36.352 48.64-67.584 48.64z m620.544-92.672c-27.136 0-51.2-15.36-62.976-38.4-5.12-9.728-8.192-20.992-8.192-32.768 0-3.584 0.512-7.168 1.024-10.24 4.096-26.624 22.528-48.64 47.616-56.832 7.168-2.56 14.336-3.584 22.528-3.584 7.168 0 14.336 1.024 20.992 3.072 28.672 9.216 49.664 35.84 49.664 67.584 0 39.424-31.744 71.168-70.656 71.168z" p-id="5794" fill="#2c2c2c"></path></svg>