<?xml version="1.0" standalone="no"?><!DOCTYPE svg PUBLIC "-//W3C//DTD SVG 1.1//EN" "http://www.w3.org/Graphics/SVG/1.1/DTD/svg11.dtd"><svg t="1765787268761" class="icon" viewBox="0 0 1024 1024" version="1.1" xmlns="http://www.w3.org/2000/svg" p-id="9344" width="16" height="16" xmlns:xlink="http://www.w3.org/1999/xlink"><path d="M796 290.8L287.2 799.5c3.1 9.6 4.8 19.8 4.8 30.5 0 54.1-43.9 98-98 98s-98-43.9-98-98 43.9-98 98-98c14 0 27.3 2.9 39.4 8.2l503.3-503.3c-5.6-12.5-8.7-26.3-8.7-40.9 0-55.2 44.8-100 100-100s100 44.8 100 100-44.8 100-100 100c-11.2 0-22-1.8-32-5.2z" fill="#ffffff" p-id="9345"></path></svg>