<?xml version="1.0" standalone="no"?><!DOCTYPE svg PUBLIC "-//W3C//DTD SVG 1.1//EN" "http://www.w3.org/Graphics/SVG/1.1/DTD/svg11.dtd"><svg t="1765787296529" class="icon" viewBox="0 0 1024 1024" version="1.1" xmlns="http://www.w3.org/2000/svg" p-id="10690" width="16" height="16" xmlns:xlink="http://www.w3.org/1999/xlink"><path d="M704 928a64 64 0 1 1 0-128 64 64 0 0 1 0 128z m-336-192a80 80 0 1 1 0-160 80 80 0 0 1 0 160z m-96-288a112 112 0 1 1 0-224 112 112 0 0 1 0 224zM736 352a128 128 0 1 1 0-256 128 128 0 0 1 0 256z" fill="#ffffff" p-id="10691"></path></svg>